# xmcd
#
# Track frame offsets:
#	150
#	12577
#	25202
#	36699
#	50561
#	64011
#	77838
#	91623
#	106345
#	118381
#	130020
#	142729
#	155302
#	168533
#	182711
#	197067
#	210639
#	223588
#	236871
#	250764
#	262125
#	273963
#
# Disc length: 3828 seconds
#
# Revision: 0
# Processed by: cddbd v1.5.2PL0 Copyright (c) Steve Scherf et al.
# Submitted via: EasyCDDAExtractor 8.2.3.1
#
DISCID=420ef216
DTITLE=Raridades Caipira - Volume 1
DYEAR=1900
DGENRE=Sertanejo
TTITLE0=Matando saudade
TTITLE1=Mercadora
TTITLE2=Meu canário
TTITLE3=Monumento nacional
TTITLE4=Namoro no portão
TTITLE5=O crime de Maringá
TTITLE6=O crime de Três Lagoas
TTITLE7=O padre e o ateu
TTITLE8=Padre Lima de Tambaú
TTITLE9=Paraíba
TTITLE10=Paraná do Norte
TTITLE11=Passarinhos do sertão
TTITLE12=Peixe vivo
TTITLE13=Pomba do mato
TTITLE14=Por ti padeço
TTITLE15=Porto Paranaguá
TTITLE16=Prega fogo
TTITLE17=Quarto centenário de São Paulo
TTITLE18=Jangadeiro cearense
TTITLE19=Lágrimas de mulher
TTITLE20=Luiz Baião
TTITLE21=Maruca do sertão
EXTD=
EXTT0=
EXTT1=
EXTT2=
EXTT3=
EXTT4=
EXTT5=
EXTT6=
EXTT7=
EXTT8=
EXTT9=
EXTT10=
EXTT11=
EXTT12=
EXTT13=
EXTT14=
EXTT15=
EXTT16=
EXTT17=
EXTT18=
EXTT19=
EXTT20=
EXTT21=
PLAYORDER=
